<svg width="24" height="25" viewBox="0 0 24 25" fill="none" xmlns="http://www.w3.org/2000/svg">
<g opacity="0.2">
<path d="M17.882 20.0163C16.1232 21.1319 14.0828 21.7226 12 21.7193C6.60803 21.7193 2.12203 17.8393 1.18103 12.7193C1.61106 10.39 2.78266 8.26219 4.52103 6.6533L1.39203 3.5273L2.80703 2.1123L22.606 21.9123L21.191 23.3263L17.881 20.0163H17.882ZM5.93503 8.0693C4.57604 9.30489 3.62935 10.9281 3.22303 12.7193C3.53532 14.0858 4.16229 15.3604 5.05403 16.4419C5.94577 17.5233 7.07766 18.3817 8.35958 18.9486C9.64151 19.5155 11.0381 19.7754 12.4381 19.7074C13.8382 19.6395 15.203 19.2457 16.424 18.5573L14.396 16.5293C13.5327 17.0731 12.5102 17.3074 11.4963 17.1937C10.4823 17.0801 9.53707 16.6252 8.8156 15.9037C8.09413 15.1823 7.63926 14.237 7.52559 13.2231C7.41193 12.2091 7.64621 11.1866 8.19003 10.3233L5.93503 8.0693ZM12.914 15.0473L9.67203 11.8053C9.49409 12.2582 9.45222 12.7533 9.55154 13.2296C9.65085 13.706 9.88705 14.1431 10.2311 14.4872C10.5752 14.8313 11.0123 15.0675 11.4887 15.1668C11.9651 15.2661 12.4601 15.2242 12.913 15.0463L12.914 15.0473ZM20.807 17.3113L19.376 15.8813C20.0445 14.9286 20.5204 13.8545 20.777 12.7193C20.5053 11.529 19.9943 10.4064 19.2752 9.41979C18.5561 8.43314 17.6438 7.60302 16.5939 6.9799C15.544 6.35678 14.3783 5.95366 13.1678 5.79506C11.9572 5.63646 10.727 5.72568 9.55203 6.0573L7.97403 4.4793C9.22103 3.9893 10.58 3.7193 12 3.7193C17.392 3.7193 21.878 7.5993 22.819 12.7193C22.5126 14.385 21.8239 15.9569 20.807 17.3113ZM11.723 8.2273C12.3595 8.18796 12.9971 8.28436 13.5936 8.51011C14.19 8.73587 14.7316 9.08581 15.1826 9.53675C15.6335 9.98769 15.9835 10.5293 16.2092 11.1258C16.435 11.7222 16.5314 12.3598 16.492 12.9963L11.722 8.2273H11.723Z" fill="black"/>
</g>
</svg>
