<svg width="24" height="25" viewBox="0 0 24 25" fill="none" xmlns="http://www.w3.org/2000/svg">
<g opacity="0.2">
<path d="M12 3.7193C17.392 3.7193 21.878 7.5993 22.819 12.7193C21.879 17.8393 17.392 21.7193 12 21.7193C6.60803 21.7193 2.12203 17.8393 1.18103 12.7193C2.12103 7.5993 6.60803 3.7193 12 3.7193ZM12 19.7193C14.0395 19.7189 16.0184 19.0261 17.6129 17.7545C19.2074 16.4828 20.3229 14.7076 20.777 12.7193C20.3213 10.7326 19.205 8.9593 17.6107 7.68933C16.0163 6.41935 14.0383 5.72783 12 5.72783C9.96173 5.72783 7.98372 6.41935 6.38941 7.68933C4.79509 8.9593 3.6788 10.7326 3.22303 12.7193C3.67713 14.7076 4.7927 16.4828 6.38717 17.7545C7.98164 19.0261 9.96056 19.7189 12 19.7193ZM12 17.2193C10.8066 17.2193 9.66196 16.7452 8.81805 15.9013C7.97414 15.0574 7.50003 13.9128 7.50003 12.7193C7.50003 11.5258 7.97414 10.3812 8.81805 9.53732C9.66196 8.69341 10.8066 8.2193 12 8.2193C13.1935 8.2193 14.3381 8.69341 15.182 9.53732C16.0259 10.3812 16.5 11.5258 16.5 12.7193C16.5 13.9128 16.0259 15.0574 15.182 15.9013C14.3381 16.7452 13.1935 17.2193 12 17.2193ZM12 15.2193C12.6631 15.2193 13.299 14.9559 13.7678 14.4871C14.2366 14.0182 14.5 13.3823 14.5 12.7193C14.5 12.0563 14.2366 11.4204 13.7678 10.9515C13.299 10.4827 12.6631 10.2193 12 10.2193C11.337 10.2193 10.7011 10.4827 10.2323 10.9515C9.76342 11.4204 9.50003 12.0563 9.50003 12.7193C9.50003 13.3823 9.76342 14.0182 10.2323 14.4871C10.7011 14.9559 11.337 15.2193 12 15.2193Z" fill="black"/>
</g>
</svg>
